<svg version="1.1" xmlns="http://www.w3.org/2000/svg" xmlns:xlink="http://www.w3.org/1999/xlink" width="21.16667" height="21.16666" viewBox="0,0,21.16667,21.16666"><g transform="translate(-289.41667,-169.41667)"><g stroke-miterlimit="10"><path d="M289.66667,188.72223c0,-4.12306 0,-14.8995 0,-17.27778c0,-0.90695 1.15457,-1.77778 2.27778,-1.77778c2.43065,0 11.82569,0 16.16667,0c1.35866,0 2.22222,0.76895 2.22222,2c0,4.35761 0,14.50525 0,16.83333c0,0.93157 -0.69982,1.83333 -1.83333,1.83333c-4.275,0 -14.71885,0 -17.05556,0c-0.90695,0 -1.77778,-0.60906 -1.77778,-1.61111z" fill-opacity="0.40392" fill="#ffffff" stroke="#000000" stroke-width="0.5"/><path d="M290.6875,183.83333v-8.125h18.625v8.125z" fill-opacity="0.03137" fill="#ffffff" stroke="#2570ff" stroke-width="1"/><path d="M297.3125,179.70833c0,-1.51878 1.23122,-2.75 2.75,-2.75c1.51878,0 2.75,1.23122 2.75,2.75c0,1.51878 -1.23122,2.75 -2.75,2.75c-1.51878,0 -2.75,-1.23122 -2.75,-2.75z" fill="none" stroke="#2570ff" stroke-width="1"/></g></g></svg>