<svg version="1.1" xmlns="http://www.w3.org/2000/svg" xmlns:xlink="http://www.w3.org/1999/xlink" width="281.625" height="194.10737" viewBox="0,0,281.625,194.10737"><g transform="translate(-178.5625,-12.51761)"><g stroke="none" stroke-miterlimit="10"><path d="M178.5625,187.17547c0,-23.24826 0,-120.61066 0,-159c0,-9.71876 4.84807,-15.65785 12.44271,-15.65785c48.01664,0 225.30934,0 254.5,0c7.92872,0 14.68229,4.67449 14.68229,10.15785c0,19.04209 0,129.50582 0,169.5c0,9.01499 -5.98829,14.44952 -13.18229,14.44952c-26.60991,0 -190.45524,0 -248.5,0c-12.76948,0 -19.94271,-9.72746 -19.94271,-19.44952z" fill-opacity="0.2902" fill="#ffffff" stroke-width="0"/><text transform="translate(303.41918,176.42857) scale(0.42883,0.42883)" font-size="40" xml:space="preserve" fill="#000000" stroke-width="1" font-family="&quot;ヒラギノ角ゴ Pro W3&quot;, &quot;Hiragino Kaku Gothic Pro&quot;, Osaka, &quot;メイリオ&quot;, Meiryo, &quot;ＭＳ Ｐゴシック&quot;, &quot;MS PGothic&quot;" font-weight="normal" text-anchor="start"><tspan x="0" dy="0">パスワードを</tspan><tspan x="0" dy="46.15px">入力してください</tspan></text></g></g></svg>