<svg version="1.1" xmlns="http://www.w3.org/2000/svg" xmlns:xlink="http://www.w3.org/1999/xlink" width="157.16775" height="86.00809" viewBox="0,0,157.16775,86.00809"><g transform="translate(-221.41613,-136.99596)"><g stroke-miterlimit="10"><path d="M221.66613,218.55575c0,-15.40463 0,-68.37266 0,-77.00963c0,-2.33049 1.38627,-4.30016 3.3106,-4.30016c11.64029,0 123.72624,0 148.51858,0c3.10302,0 4.83857,0.99774 4.83857,2.77219c0,12.93308 0,67.12703 0,77.00963c0,3.01088 -2.19509,5.72627 -6.06094,5.72627c-26.86187,0 -134.39095,0 -146.68502,0c-2.25345,0 -3.92179,-1.53975 -3.92179,-4.1983z" fill="#ffffff" stroke="#000000" stroke-width="0.5" stroke-linecap="butt"/><text transform="translate(248.22644,175.86571) scale(0.2614,0.2614)" font-size="40" xml:space="preserve" fill="#000000" stroke="none" stroke-width="1" stroke-linecap="butt" font-family="Sans Serif" font-weight="normal" text-anchor="start"><tspan x="0" dy="0">このアプリはすでに開いて</tspan><tspan x="0" dy="46.150000000000006px">います。</tspan></text><path d="M225.53458,187.04485l10.45606,-18.46495l10.67852,18.46495z" fill="#ffea00" stroke="none" stroke-width="0" stroke-linecap="butt"/><path d="M235.54569,180.14831v-8.00889" fill="none" stroke="#000000" stroke-width="2" stroke-linecap="round"/><path d="M234.87828,184.15276c0,-0.3686 0.29881,-0.66741 0.66741,-0.66741c0.3686,0 0.66741,0.29881 0.66741,0.66741c0,0.3686 -0.29881,0.66741 -0.66741,0.66741c-0.3686,0 -0.66741,-0.29881 -0.66741,-0.66741z" fill="#000000" stroke="#000000" stroke-width="2" stroke-linecap="butt"/><g><path d="M366.50001,145.05555c0,-2.57733 2.08934,-4.66666 4.66667,-4.66666c2.57733,0 4.66667,2.08933 4.66667,4.66666c0,2.57733 -2.08934,4.66667 -4.66667,4.66667c-2.57733,0 -4.66667,-2.08934 -4.66667,-4.66667z" fill="#ff5a5a" stroke="none" stroke-width="0" stroke-linecap="butt"/><path d="M373.66667,147.22222l-4.5,-4.5" fill="none" stroke="#ffffff" stroke-width="1" stroke-linecap="round"/><path d="M373.66667,142.72222l-4.5,4.5" fill="none" stroke="#ffffff" stroke-width="1" stroke-linecap="round"/></g><text transform="translate(249.85022,201.25343) scale(0.1506,0.1506)" font-size="40" xml:space="preserve" fill="#000000" stroke="none" stroke-width="1" stroke-linecap="butt" font-family="Sans Serif" font-weight="normal" text-anchor="start"><tspan x="0" dy="0">同じアプリを2つ同時に開くことはできません</tspan></text></g></g></svg>