<svg version="1.1" xmlns="http://www.w3.org/2000/svg" xmlns:xlink="http://www.w3.org/1999/xlink" width="601.46105" height="337.27785" viewBox="0,0,601.46105,337.27785"><g transform="translate(0.73052,1.1389)"><g stroke-miterlimit="10"><path d="M-0.48052,335.88895v-336.77785h600.96105v336.77785z" fill="#ffffff" stroke="#000000" stroke-width="0.5" stroke-linecap="butt"/><path d="M570.78446,14.3556c0,-4.27837 3.46831,-7.74666 7.74667,-7.74666c4.27837,0 7.74667,3.46829 7.74667,7.74666c0,4.27837 -3.46831,7.74667 -7.74667,7.74667c-4.27837,0 -7.74667,-3.46831 -7.74667,-7.74667z" fill="#ff5a5a" stroke="none" stroke-width="0" stroke-linecap="butt"/><path d="M551.41784,13.80227c0,-4.27837 3.46829,-7.74667 7.74666,-7.74667c4.27837,0 7.74667,3.46831 7.74667,7.74667c0,4.27837 -3.46831,7.74667 -7.74667,7.74667c-4.27837,0 -7.74666,-3.46831 -7.74666,-7.74667z" fill="#fff259" stroke="none" stroke-width="0" stroke-linecap="butt"/><path d="M530.94449,13.80227c0,-4.27837 3.46831,-7.74667 7.74667,-7.74667c4.27837,0 7.74667,3.46831 7.74667,7.74667c0,4.27837 -3.46831,7.74667 -7.74667,7.74667c-4.27837,0 -7.74667,-3.46831 -7.74667,-7.74667z" fill="#7aff59" stroke="none" stroke-width="0" stroke-linecap="butt"/><path d="M582.6811,17.95226l-7.47,-7.47" fill="none" stroke="#ffffff" stroke-width="1" stroke-linecap="round"/><path d="M582.6811,10.48227l-7.47,7.47" fill="none" stroke="#ffffff" stroke-width="1" stroke-linecap="round"/><path d="M555.29113,16.56893h8.85333" fill="none" stroke="#ffffff" stroke-width="1" stroke-linecap="round"/><path d="M536.41463,19.75059v-5.25667h5.25667v5.25667z" fill="none" stroke="#ffffff" stroke-width="1" stroke-linecap="butt"/><text transform="translate(3.52721,19.93607) scale(0.48041,0.48041)" font-size="40" xml:space="preserve" fill="#000000" stroke="none" stroke-width="1" stroke-linecap="butt" font-family="Sans Serif" font-weight="normal" text-anchor="start"><tspan x="0" dy="0">SNS</tspan></text><text transform="translate(220.32128,103.04211) scale(0.82886,0.82886)" font-size="40" xml:space="preserve" fill="#000000" stroke="none" stroke-width="1" stroke-linecap="butt" font-family="Sans Serif" font-weight="normal" text-anchor="start"><tspan x="0" dy="0">tabs掲示板</tspan></text></g></g></svg>