<svg version="1.1" xmlns="http://www.w3.org/2000/svg" xmlns:xlink="http://www.w3.org/1999/xlink" width="16.77778" height="21.22222" viewBox="0,0,16.77778,21.22222"><g transform="translate(-291.61111,-169.38889)"><g stroke-width="0.5" stroke-miterlimit="10"><path d="M291.61111,190.61111v-21.22222c0,0 6.047,0 10.20139,0c1.23819,0 6.57639,4.70929 6.57639,5.75694c0,5.38301 0,15.46528 0,15.46528z" fill-opacity="0.01569" fill="#ffffff" stroke="none" stroke-linecap="butt"/><path d="M296.375,180c0,-2.00203 1.62297,-3.625 3.625,-3.625c2.00203,0 3.625,1.62297 3.625,3.625c0,2.00203 -1.62297,3.625 -3.625,3.625c-2.00203,0 -3.625,-1.62297 -3.625,-3.625z" fill="none" stroke="#1364ff" stroke-linecap="butt"/><path d="M298.67361,176.17725v-2.625h2.625v2.625" fill="none" stroke="#1364ff" stroke-linecap="round"/><path d="M301.37004,183.83796v2.625h-2.625v-2.625" fill="none" stroke="#1364ff" stroke-linecap="round"/><path d="M302.12995,176.72189l1.85616,-1.85616l1.85616,1.85616l-1.85616,1.85616" fill="none" stroke="#1364ff" stroke-linecap="round"/><path d="M296.12897,178.86376l-1.85616,-1.85616l1.85616,-1.85616l1.85616,1.85616" fill="none" stroke="#1364ff" stroke-linecap="round"/><path d="M298.27083,183.72189l-1.85616,1.85616l-1.85616,-1.85616l1.85616,-1.85616" fill="none" stroke="#1364ff" stroke-linecap="round"/><path d="M303.70039,181.65145l1.85616,1.85616l-1.85616,1.85616l-1.85616,-1.85616" fill="none" stroke="#1364ff" stroke-linecap="round"/><path d="M296.15575,181.46296h-2.625v-2.625h2.625" fill="none" stroke="#1364ff" stroke-linecap="round"/><path d="M303.8879,179.05225h2.625v2.625h-2.625" fill="none" stroke="#1364ff" stroke-linecap="round"/></g></g></svg>