<svg version="1.1" xmlns="http://www.w3.org/2000/svg" xmlns:xlink="http://www.w3.org/1999/xlink" width="234.52134" height="128" viewBox="0,0,234.52134,128"><g transform="translate(-182.73933,-116)"><g stroke-miterlimit="10"><path d="M182.73933,237.71542c0,-23.05972 0,-102.34938 0,-115.27837c0,-3.48859 2.07515,-6.43705 4.95575,-6.43705c17.42476,0 185.21007,0 222.32257,0c4.64501,0 7.24302,1.49354 7.24302,4.14978c0,19.35997 0,100.48476 0,115.27837c0,4.50709 -3.2859,8.57185 -9.07283,8.57185c-40.21046,0 -201.17444,0 -219.57785,0c-3.37326,0 -5.87066,-2.30491 -5.87066,-6.28458z" fill="#ffffff" stroke="#000000" stroke-width="0" stroke-linecap="butt"/><path d="M406.83334,122.05555c0,-2.57733 2.08934,-4.66666 4.66667,-4.66666c2.57733,0 4.66667,2.08933 4.66667,4.66666c0,2.57733 -2.08934,4.66667 -4.66667,4.66667c-2.57733,0 -4.66667,-2.08934 -4.66667,-4.66667z" fill="#ff5a5a" stroke="none" stroke-width="0" stroke-linecap="butt"/><path d="M395.16667,121.72222c0,-2.57733 2.08933,-4.66667 4.66666,-4.66667c2.57733,0 4.66667,2.08934 4.66667,4.66667c0,2.57733 -2.08934,4.66667 -4.66667,4.66667c-2.57733,0 -4.66666,-2.08934 -4.66666,-4.66667z" fill="#fff259" stroke="none" stroke-width="0" stroke-linecap="butt"/><path d="M383.16667,121.72222c0,-2.57733 2.08934,-4.66667 4.66667,-4.66667c2.57733,0 4.66667,2.08934 4.66667,4.66667c0,2.57733 -2.08934,4.66667 -4.66667,4.66667c-2.57733,0 -4.66667,-2.08934 -4.66667,-4.66667z" fill="#7aff59" stroke="none" stroke-width="0" stroke-linecap="butt"/><path d="M409.5,119.72222l4.5,4.5" fill="none" stroke="#ffffff" stroke-width="1" stroke-linecap="round"/><path d="M414,119.72222l-4.5,4.5" fill="none" stroke="#ffffff" stroke-width="1" stroke-linecap="round"/><path d="M397.5,123.38889h5.33333" fill="none" stroke="#ffffff" stroke-width="1" stroke-linecap="round"/><path d="M388.16667,118.38889v7.66667" fill="none" stroke="#ffffff" stroke-width="1" stroke-linecap="round"/><path d="M384.83333,122.05555h6.33333" fill="none" stroke="#ffffff" stroke-width="1" stroke-linecap="round"/><text transform="translate(218.0139,202.26391) scale(0.5,0.5)" font-size="40" xml:space="preserve" fill="#0058ff" stroke="none" stroke-width="1" stroke-linecap="butt" font-family="Sans Serif" font-weight="normal" text-anchor="start"><tspan x="0" dy="0">setmiumブラウザ</tspan></text></g></g></svg>