<svg version="1.1" xmlns="http://www.w3.org/2000/svg" xmlns:xlink="http://www.w3.org/1999/xlink" width="234.52134" height="129.87967" viewBox="0,0,234.52134,129.87967"><g transform="translate(-182.73933,-114.12032)"><g stroke-miterlimit="10"><path d="M182.73933,237.71543c0,-23.05972 0,-102.34938 0,-115.27837c0,-3.4886 2.07515,-6.43706 4.95575,-6.43706c17.42476,0 185.21007,0 222.32257,0c4.64501,0 7.24302,1.49354 7.24302,4.14978c0,19.35997 0,100.48477 0,115.27837c0,4.50708 -3.28591,8.57184 -9.07283,8.57184c-40.21046,0 -201.17443,0 -219.57784,0c-3.37326,0 -5.87066,-2.3049 -5.87066,-6.28457z" fill="#ffffff" stroke="#000000" stroke-width="0" stroke-linecap="butt"/><path d="M406.83334,122.05555c0,-2.57733 2.08934,-4.66666 4.66667,-4.66666c2.57733,0 4.66667,2.08933 4.66667,4.66666c0,2.57733 -2.08934,4.66667 -4.66667,4.66667c-2.57733,0 -4.66667,-2.08934 -4.66667,-4.66667z" fill="#ff5a5a" stroke="none" stroke-width="0" stroke-linecap="butt"/><path d="M395.16667,121.72222c0,-2.57733 2.08933,-4.66667 4.66666,-4.66667c2.57733,0 4.66667,2.08934 4.66667,4.66667c0,2.57733 -2.08934,4.66667 -4.66667,4.66667c-2.57733,0 -4.66666,-2.08934 -4.66666,-4.66667z" fill="#fff259" stroke="none" stroke-width="0" stroke-linecap="butt"/><path d="M383.16667,121.72222c0,-2.57733 2.08934,-4.66667 4.66667,-4.66667c2.57733,0 4.66667,2.08934 4.66667,4.66667c0,2.57733 -2.08934,4.66667 -4.66667,4.66667c-2.57733,0 -4.66667,-2.08934 -4.66667,-4.66667z" fill="#7aff59" stroke="none" stroke-width="0" stroke-linecap="butt"/><path d="M409.5,119.72222l4.5,4.5" fill="none" stroke="#ffffff" stroke-width="1" stroke-linecap="round"/><path d="M414,119.72222l-4.5,4.5" fill="none" stroke="#ffffff" stroke-width="1" stroke-linecap="round"/><path d="M397.5,123.38889h5.33333" fill="none" stroke="#ffffff" stroke-width="1" stroke-linecap="round"/><path d="M388.16667,118.38889v7.66667" fill="none" stroke="#ffffff" stroke-width="1" stroke-linecap="round"/><path d="M384.83333,122.05555h6.33333" fill="none" stroke="#ffffff" stroke-width="1" stroke-linecap="round"/><text transform="translate(183.12054,125.66568) scale(0.26746,0.26746)" font-size="40" xml:space="preserve" fill="#000000" stroke="none" stroke-width="1" stroke-linecap="butt" font-family="Sans Serif" font-weight="normal" text-anchor="start"><tspan x="0" dy="0">sns</tspan></text><text transform="translate(251.51824,157.42601) scale(0.5,0.5)" font-size="40" xml:space="preserve" fill="#000000" stroke="none" stroke-width="1" stroke-linecap="butt" font-family="Sans Serif" font-weight="normal" text-anchor="start"><tspan x="0" dy="0">tabs掲示板</tspan></text></g></g></svg>