<svg version="1.1" xmlns="http://www.w3.org/2000/svg" xmlns:xlink="http://www.w3.org/1999/xlink" width="21.16667" height="27.83333" viewBox="0,0,21.16667,27.83333"><g transform="translate(-289.41666,-164.41666)"><g stroke-miterlimit="10"><path d="M289.66666,188.90717c0,-4.12306 0,-14.8995 0,-17.27778c0,-0.90695 1.15457,-1.77778 2.27778,-1.77778c2.43065,0 11.82569,0 16.16667,0c1.35866,0 2.22222,0.76895 2.22222,2c0,4.35761 0,14.50525 0,16.83333c0,0.93157 -0.69982,1.83333 -1.83333,1.83333c-4.275,0 -14.71885,0 -17.05556,0c-0.90695,0 -1.77778,-0.60906 -1.77778,-1.61111z" fill-opacity="0.40392" fill="#ffffff" stroke="#000000" stroke-width="0.5"/><text transform="translate(294.68778,186) scale(0.5,0.5)" font-size="40" xml:space="preserve" fill="#0058ff" stroke="none" stroke-width="1" font-family="Sans Serif" font-weight="normal" text-anchor="start"><tspan x="0" dy="0">s</tspan></text><path d="M290.77779,173.18495v-1.88889h18.61111v1.88889z" fill="none" stroke="#0058ff" stroke-width="0.5"/><path d="M290.8889,188.68495v-14.77778h18.38889v14.77778z" fill="none" stroke="#0058ff" stroke-width="0.5"/></g></g></svg>