<svg version="1.1" xmlns="http://www.w3.org/2000/svg" xmlns:xlink="http://www.w3.org/1999/xlink" width="128" height="30.02998" viewBox="0,0,128,30.02998"><g transform="translate(-236,-164.98502)"><g stroke-miterlimit="10"><path d="M236.25,190.24864c0,-6.66125 0,-18.67927 0,-21.88692c0,-1.5508 1.49009,-3.1267 3.47411,-3.1267c10.48401,0 99.43175,0 119.85695,0c2.66986,0 4.16894,1.66959 4.16894,4.16894c0,6.25504 0,17.70715 0,21.1921c0,1.97752 -1.36982,4.16894 -3.82153,4.16894c-19.42425,0 -106.75857,0 -118.81471,0c-2.70401,0 -4.86376,-1.819 -4.86376,-4.51635z" fill-opacity="0.01176" fill="#ffffff" stroke="#000000" stroke-width="0.5" stroke-linecap="butt"/><text transform="translate(264.13987,185.20833) scale(0.40249,0.40249)" font-size="40" xml:space="preserve" fill="#0059ff" stroke="none" stroke-width="1" stroke-linecap="butt" font-family="Sans Serif" font-weight="normal" text-anchor="start"><tspan x="0" dy="0">tabsを閉じる</tspan></text><path d="M243.5,181.33333c0,-2.89949 2.35051,-5.25 5.25,-5.25c2.89949,0 5.25,2.35051 5.25,5.25c0,2.89949 -2.35051,5.25 -5.25,5.25c-2.89949,0 -5.25,-2.35051 -5.25,-5.25z" fill="none" stroke="#0059ff" stroke-width="1" stroke-linecap="butt"/><path d="M248.5,173.58333v7" fill="none" stroke="#0059ff" stroke-width="1" stroke-linecap="round"/></g></g></svg>