<svg version="1.1" xmlns="http://www.w3.org/2000/svg" xmlns:xlink="http://www.w3.org/1999/xlink" width="278.08" height="240.90957" viewBox="0,0,278.08,240.90957"><g transform="translate(-160.96,-59.54521)"><g stroke-miterlimit="10"><path d="M167.21,281.29085c0,-43.77225 0,-184.96857 0,-206.09571c0,-5.19116 4.03632,-9.39993 9.18528,-9.39993c23.5609,0 198.63589,0 245.10105,0c7.18402,0 11.29368,3.43205 11.29368,7.81863c0,19.23048 0,156.98288 0,204.51442c0,10.05833 -5.60493,16.07652 -12.34788,16.07652c-26.48954,0 -197.58494,0 -242.46554,0c-6.85592,0 -10.76658,-4.77133 -10.76658,-12.91393z" fill-opacity="0.02745" fill="#ffffff" stroke-opacity="0.02353" stroke="#b5b5b5" stroke-width="12.5"/><path d="M176.75,274.01384c0,-40.62753 0,-171.67992 0,-191.28923c0,-4.81821 3.74634,-8.72461 8.52538,-8.72461c21.86822,0 184.36534,0 227.49231,0c6.6679,0 10.48231,3.18548 10.48231,7.25692c0,17.84891 0,145.7048 0,189.82154c0,9.33571 -5.20226,14.92154 -11.46077,14.92154c-24.58646,0 -183.38989,0 -225.04615,0c-6.36337,0 -9.99308,-4.42854 -9.99308,-11.98616z" fill-opacity="0.50196" fill="#ffffff" stroke-opacity="0.02353" stroke="#b5b5b5" stroke-width="12.5"/><text transform="translate(205.82308,97.40153) scale(0.5,0.5)" font-size="40" xml:space="preserve" fill="#0059ff" stroke="none" stroke-width="1" font-family="Sans Serif" font-weight="normal" text-anchor="start"><tspan x="0" dy="0">tabs13 html edation</tspan></text></g></g></svg>